<?xml version="1.0" encoding="UTF-8" standalone="no"?>
<svg
   viewBox="0 0 102.29273 30.745001"
   version="1.1"
   id="svg1"
   sodipodi:docname="we-love-games-symbolic.svg"
   inkscape:version="1.4.4 (dcaf3e7d9e, 2026-05-05)"
   xmlns:inkscape="http://www.inkscape.org/namespaces/inkscape"
   xmlns:sodipodi="http://sodipodi.sourceforge.net/DTD/sodipodi-0.dtd"
   xmlns="http://www.w3.org/2000/svg"
   xmlns:svg="http://www.w3.org/2000/svg">
  <sodipodi:namedview
     id="namedview1"
     pagecolor="#ffffff"
     bordercolor="#000000"
     borderopacity="0.25"
     inkscape:showpageshadow="2"
     inkscape:pageopacity="0.0"
     inkscape:pagecheckerboard="0"
     inkscape:deskcolor="#d1d1d1"
     inkscape:zoom="11.369332"
     inkscape:cx="75.466175"
     inkscape:cy="15.392285"
     inkscape:window-width="1920"
     inkscape:window-height="1011"
     inkscape:window-x="0"
     inkscape:window-y="0"
     inkscape:window-maximized="1"
     inkscape:current-layer="layer1" />
  <defs
     id="defs1" />
  <g
     id="layer1"
     transform="translate(-50.535402,-124.88332)">
    <path
       d="m 75.207277,136.27004 c -0.245114,-0.009 -0.487709,-4e-5 -0.726562,0.0176 H 74.437746 56.27173 c -1.909939,-0.0372 -3.594646,1.41412 -3.839844,3.30859 -0.620785,4.15927 -1.242496,8.31925 -1.863281,12.47852 a 0.79382936,0.79382936 0 0 0 -0.002,0.0156 c -0.130421,1.01251 0.205542,1.92665 0.804687,2.52344 0.599145,0.5968 1.402045,0.89753 2.216797,0.97461 0.814751,0.0771 1.660894,-0.0668 2.400391,-0.46289 0.724024,-0.38777 1.349401,-1.04924 1.609375,-1.93555 0.335677,-0.76614 0.667923,-1.52757 1.085937,-2.10742 0.424828,-0.5893 0.894564,-0.97857 1.607422,-1.14649 1.564961,-0.26769 3.264469,-0.10387 5.058594,-0.15429 h 5.19336 a 0.79382936,0.79382936 0 0 0 0.03711,-0.002 c 0.832567,-0.0396 1.480743,0.25991 2.058594,0.78907 0.577851,0.52916 1.048174,1.30151 1.353515,2.10156 0.288882,0.79106 0.763845,1.55167 1.445313,2.11914 0.657846,0.5478 1.547128,0.87577 2.519531,0.79492 2.120557,0.19891 3.79973,-1.89575 3.238281,-3.91406 -0.599888,-4.01911 -1.20091,-8.03755 -1.800781,-12.05664 -0.140166,-1.29651 -0.938805,-2.25466 -1.898437,-2.76172 -0.713969,-0.37725 -1.510256,-0.55253 -2.289063,-0.58203 z m -0.07813,1.58984 c 0.587281,0.0241 1.175132,0.15579 1.626953,0.39453 0.602428,0.31831 0.975713,0.7446 1.060547,1.5293 a 0.79382936,0.79382936 0 0 0 0.0039,0.0312 c 0.6037,4.04474 1.2088,8.09001 1.8125,12.13477 a 0.79382936,0.79382936 0 0 0 0.02539,0.11328 c 0.290574,0.95333 -0.583384,2.07861 -1.585938,1.95703 a 0.79382936,0.79382936 0 0 0 -0.189453,0 c -0.566645,0.0675 -1.013069,-0.10425 -1.429687,-0.45117 -0.416618,-0.34693 -0.767366,-0.88529 -0.972656,-1.45118 a 0.79382936,0.79382936 0 0 0 -0.0039,-0.0117 c -0.374161,-0.98038 -0.945451,-1.95792 -1.765625,-2.70899 -0.820173,-0.75106 -1.92619,-1.26388 -3.205078,-1.20312 h -5.15625 a 0.79382936,0.79382936 0 0 0 -0.02344,0 c -1.670817,0.0488 -3.470697,-0.14684 -5.339844,0.17968 a 0.79382936,0.79382936 0 0 0 -0.04102,0.008 c -1.145132,0.26399 -1.9751,0.97758 -2.548828,1.77343 -0.573727,0.79584 -0.938053,1.68155 -1.275391,2.45118 a 0.79382936,0.79382936 0 0 0 -0.03906,0.10937 c -0.126707,0.46476 -0.418014,0.78371 -0.84375,1.01172 -0.425736,0.22801 -0.983732,0.33009 -1.5,0.28125 -0.516268,-0.0488 -0.971695,-0.24621 -1.246094,-0.51953 -0.274398,-0.27332 -0.428336,-0.59929 -0.351562,-1.19531 0.620785,-4.15927 1.242497,-8.31925 1.863281,-12.47852 a 0.79382936,0.79382936 0 0 0 0.002,-0.0156 c 0.134532,-1.03943 1.186485,-1.94424 2.234375,-1.92383 a 0.79382936,0.79382936 0 0 0 0.01563,0 h 18.22461 a 0.79382936,0.79382936 0 0 0 0.06641,-0.004 c 0.190574,-0.016 0.386271,-0.0197 0.582031,-0.0117 z"
       style="baseline-shift:baseline;display:inline;overflow:visible;opacity:1;vector-effect:none;fill:currentColor;stroke-linecap:round;stroke-linejoin:round;stroke-miterlimit:2;enable-background:accumulate;stop-color:#000000;stop-opacity:1"
       id="path13" />
    <path
       d=""
       style="baseline-shift:baseline;display:inline;overflow:visible;vector-effect:none;fill:#c5eee1;stroke-linecap:round;stroke-linejoin:round;stroke-miterlimit:2;enable-background:accumulate;stop-color:#000000;stop-opacity:1"
       id="path12" />
    <path
       d="m 55.99048,142.10793 a 0.79374999,0.79374999 0 0 0 -0.792969,0.79492 0.79374999,0.79374999 0 0 0 0.792969,0.79297 h 1.851563 v -1.58789 z m 3.439453,0 v 1.58789 h 1.851563 a 0.79374999,0.79374999 0 0 0 0.794922,-0.79297 0.79374999,0.79374999 0 0 0 -0.794922,-0.79492 z"
       style="baseline-shift:baseline;display:inline;overflow:visible;vector-effect:none;fill:currentColor;stroke-linecap:round;stroke-linejoin:round;stroke-miterlimit:2;enable-background:accumulate;stop-color:#000000;stop-opacity:1"
       id="path11" />
    <path
       d=""
       style="baseline-shift:baseline;display:inline;overflow:visible;vector-effect:none;fill:#c5eee1;stroke-linecap:round;stroke-linejoin:round;stroke-miterlimit:2;enable-background:accumulate;stop-color:#000000;stop-opacity:1"
       id="path10" />
    <path
       d="m 58.636964,139.4634 a 0.79374999,0.79374999 0 0 0 -0.794921,0.79297 v 5.29101 a 0.79374999,0.79374999 0 0 0 0.794921,0.79492 0.79374999,0.79374999 0 0 0 0.792969,-0.79492 v -5.29101 a 0.79374999,0.79374999 0 0 0 -0.792969,-0.79297 z"
       style="baseline-shift:baseline;display:inline;overflow:visible;vector-effect:none;fill:currentColor;stroke-linecap:round;stroke-linejoin:round;stroke-miterlimit:2;enable-background:accumulate;stop-color:#000000;stop-opacity:1"
       id="path9" />
    <path
       d=""
       style="baseline-shift:baseline;display:inline;overflow:visible;vector-effect:none;fill:#c5eee1;stroke-linecap:round;stroke-linejoin:round;stroke-miterlimit:2;enable-background:accumulate;stop-color:#000000;stop-opacity:1"
       id="path31" />
    <path
       d="m 111.81861,143.43215 a 0.79374999,0.79374999 0 0 0 -0.79493,0.79297 0.79374999,0.79374999 0 0 0 0.79493,0.79297 h 1.85156 v -1.58594 z m 3.43945,0 v 1.58594 h 1.85156 a 0.79374999,0.79374999 0 0 0 0.79297,-0.79297 0.79374999,0.79374999 0 0 0 -0.79297,-0.79297 z"
       style="baseline-shift:baseline;display:inline;overflow:visible;vector-effect:none;fill:currentColor;stroke-linecap:round;stroke-linejoin:round;stroke-miterlimit:2;enable-background:accumulate;stop-color:#000000;stop-opacity:1"
       id="path30" />
    <path
       d=""
       style="baseline-shift:baseline;display:inline;overflow:visible;vector-effect:none;fill:#c5eee1;stroke-linecap:round;stroke-linejoin:round;stroke-miterlimit:2;enable-background:accumulate;stop-color:#000000;stop-opacity:1"
       id="path29" />
    <path
       d="m 114.46314,140.78566 a 0.79374999,0.79374999 0 0 0 -0.79297,0.79297 v 5.29297 a 0.79374999,0.79374999 0 0 0 0.79297,0.79297 0.79374999,0.79374999 0 0 0 0.79492,-0.79297 v -5.29297 a 0.79374999,0.79374999 0 0 0 -0.79492,-0.79297 z"
       style="baseline-shift:baseline;display:inline;overflow:visible;vector-effect:none;fill:currentColor;stroke-linecap:round;stroke-linejoin:round;stroke-miterlimit:2;enable-background:accumulate;stop-color:#000000;stop-opacity:1"
       id="path28" />
    <path
       d="m 69.881105,141.71144 a 1.190625,1.190625 0 0 0 -1.191406,1.18946 1.190625,1.190625 0 0 0 1.191406,1.1914 1.190625,1.190625 0 0 0 1.191406,-1.1914 1.190625,1.190625 0 0 0 -1.191406,-1.18946 z"
       style="fill:currentColor;stroke-width:1.5875;stroke-linecap:round;stroke-linejoin:round;stroke-miterlimit:2"
       id="path8" />
    <path
       d="m 74.642824,141.71144 a 1.190625,1.190625 0 0 0 -1.189453,1.18946 1.190625,1.190625 0 0 0 1.189453,1.1914 1.190625,1.190625 0 0 0 1.191406,-1.1914 1.190625,1.190625 0 0 0 -1.191406,-1.18946 z"
       style="fill:currentColor;stroke-width:1.5875;stroke-linecap:round;stroke-linejoin:round;stroke-miterlimit:2"
       id="path7" />
    <path
       d="m 72.261965,139.33059 a 1.190625,1.190625 0 0 0 -1.189454,1.18945 1.190625,1.190625 0 0 0 1.189454,1.1914 1.190625,1.190625 0 0 0 1.191406,-1.1914 1.190625,1.190625 0 0 0 -1.191406,-1.18945 z"
       style="opacity:1;fill:currentColor;stroke-width:5.99999;stroke-linecap:round;stroke-linejoin:round;stroke-miterlimit:2"
       id="path6" />
    <path
       d="m 72.261965,144.0923 a 1.190625,1.190625 0 0 0 -1.189454,1.19141 1.190625,1.190625 0 0 0 1.189454,1.18945 1.190625,1.190625 0 0 0 1.191406,-1.18945 1.190625,1.190625 0 0 0 -1.191406,-1.19141 z"
       style="opacity:1;fill:currentColor;stroke-width:5.99999;stroke-linecap:round;stroke-linejoin:round;stroke-miterlimit:2"
       id="path5" />
    <path
       d="m 111.81861,134.96535 c -1.8918,0 -3.43946,1.54765 -3.43946,3.43945 v 13.75782 c 0,1.8918 1.54766,3.43945 3.43946,3.43945 h 37.57031 c 1.8918,0 3.43946,-1.54765 3.43945,-3.43945 V 138.4048 c 0,-1.8918 -1.54765,-3.43945 -3.43945,-3.43945 z m 0,1.58594 h 37.57031 c 1.03978,0 1.85156,0.81373 1.85156,1.85351 v 13.75782 c 0,1.03978 -0.81178,1.85156 -1.85156,1.85156 h -37.57031 c -1.03978,0 -1.85352,-0.81178 -1.85352,-1.85156 V 138.4048 c 0,-1.03979 0.81374,-1.85351 1.85352,-1.85351 z"
       style="baseline-shift:baseline;display:inline;overflow:visible;opacity:1;vector-effect:none;fill:currentColor;stroke-linecap:round;stroke-linejoin:round;stroke-miterlimit:2;enable-background:accumulate;stop-color:#000000;stop-opacity:1"
       id="path27" />
    <path
       d="m 121.34204,137.34621 c -1.30549,0 -2.38086,1.07539 -2.38086,2.38086 v 11.11328 c 0,1.30548 1.07537,2.38086 2.38086,2.38086 h 18.52149 c 1.30548,0 2.38086,-1.07537 2.38086,-2.38086 v -11.11328 c 0,-1.30548 -1.07538,-2.38086 -2.38086,-2.38086 z m 0,1.58789 h 18.52149 c 0.45346,0 0.79297,0.33952 0.79297,0.79297 v 11.11328 c 0,0.45346 -0.33951,0.79297 -0.79297,0.79297 h -18.52149 c -0.45347,0 -0.79297,-0.3395 -0.79297,-0.79297 v -11.11328 c 0,-0.45346 0.3395,-0.79297 0.79297,-0.79297 z"
       style="baseline-shift:baseline;display:inline;overflow:visible;opacity:1;vector-effect:none;fill:currentColor;stroke-linecap:round;stroke-linejoin:round;stroke-miterlimit:2;enable-background:accumulate;stop-color:#000000;stop-opacity:1"
       id="path26" />
    <path
       d="m 144.49439,142.77004 a 1.190625,1.190625 0 0 0 -1.19141,1.18945 1.190625,1.190625 0 0 0 1.19141,1.19141 1.190625,1.190625 0 0 0 1.18945,-1.19141 1.190625,1.190625 0 0 0 -1.18945,-1.18945 z"
       style="fill:currentColor;stroke-width:1.5875;stroke-linecap:round;stroke-linejoin:round;stroke-miterlimit:2"
       id="path25" />
    <path
       d="m 149.25611,142.77004 a 1.190625,1.190625 0 0 0 -1.19141,1.18945 1.190625,1.190625 0 0 0 1.19141,1.19141 1.190625,1.190625 0 0 0 1.1914,-1.19141 1.190625,1.190625 0 0 0 -1.1914,-1.18945 z"
       style="fill:currentColor;stroke-width:1.5875;stroke-linecap:round;stroke-linejoin:round;stroke-miterlimit:2"
       id="path24" />
    <path
       d="m 146.87525,140.38723 a 1.190625,1.190625 0 0 0 -1.19141,1.1914 1.190625,1.190625 0 0 0 1.19141,1.19141 1.190625,1.190625 0 0 0 1.18945,-1.19141 1.190625,1.190625 0 0 0 -1.18945,-1.1914 z"
       style="opacity:1;fill:currentColor;stroke-width:5.99999;stroke-linecap:round;stroke-linejoin:round;stroke-miterlimit:2"
       id="path23" />
    <path
       d="m 146.87525,145.1509 a 1.190625,1.190625 0 0 0 -1.19141,1.18945 1.190625,1.190625 0 0 0 1.19141,1.19141 1.190625,1.190625 0 0 0 1.18945,-1.19141 1.190625,1.190625 0 0 0 -1.18945,-1.18945 z"
       style="opacity:1;fill:currentColor;stroke-width:5.99999;stroke-linecap:round;stroke-linejoin:round;stroke-miterlimit:2"
       id="path22" />
    <path
       d="m 87.429933,124.88332 c -1.704368,0 -3.103515,1.49367 -3.103515,3.31445 v 24.11524 c 0,1.82078 1.399147,3.31445 3.103515,3.31445 h 11.703125 c 3.621582,-2e-5 6.574192,-3.15253 6.574222,-7.02148 v -20.40821 c 0,-1.82078 -1.39915,-3.31445 -3.10352,-3.31445 z m 0,1.64062 h 15.173827 c 0.87432,0 1.56641,0.7398 1.56641,1.67383 v 20.40821 c 0,2.98217 -2.24561,5.38086 -5.037112,5.38086 H 87.429933 c -0.874315,0 -1.566406,-0.7398 -1.566406,-1.67383 v -24.11524 c 0,-0.93403 0.692091,-1.67385 1.566406,-1.67383 z"
       style="baseline-shift:baseline;display:inline;overflow:visible;opacity:1;vector-effect:none;fill:currentColor;stroke-linecap:round;stroke-linejoin:round;stroke-miterlimit:2;enable-background:accumulate;stop-color:#000000;stop-opacity:1"
       id="path21" />
    <path
       d=""
       style="baseline-shift:baseline;display:inline;overflow:visible;vector-effect:none;fill:#c5eee1;stroke-linecap:round;stroke-linejoin:round;stroke-miterlimit:2;enable-background:accumulate;stop-color:#000000;stop-opacity:1"
       id="path20" />
    <path
       d="m 88.269777,145.28371 a 0.79374999,0.79374999 0 0 0 -0.792969,0.79297 0.79374999,0.79374999 0 0 0 0.792969,0.79492 h 1.851563 v -1.58789 z m 3.439453,0 v 1.58789 h 1.851563 a 0.79374999,0.79374999 0 0 0 0.794922,-0.79492 0.79374999,0.79374999 0 0 0 -0.794922,-0.79297 z"
       style="baseline-shift:baseline;display:inline;overflow:visible;vector-effect:none;fill:currentColor;stroke-linecap:round;stroke-linejoin:round;stroke-miterlimit:2;enable-background:accumulate;stop-color:#000000;stop-opacity:1"
       id="path19" />
    <path
       d=""
       style="baseline-shift:baseline;display:inline;overflow:visible;vector-effect:none;fill:#c5eee1;stroke-linecap:round;stroke-linejoin:round;stroke-miterlimit:2;enable-background:accumulate;stop-color:#000000;stop-opacity:1"
       id="path18" />
    <path
       d="m 90.916261,142.63723 a 0.79374999,0.79374999 0 0 0 -0.794921,0.79492 v 5.29101 a 0.79374999,0.79374999 0 0 0 0.794921,0.79297 0.79374999,0.79374999 0 0 0 0.792969,-0.79297 v -5.29101 a 0.79374999,0.79374999 0 0 0 -0.792969,-0.79492 z"
       style="baseline-shift:baseline;display:inline;overflow:visible;vector-effect:none;fill:currentColor;stroke-linecap:round;stroke-linejoin:round;stroke-miterlimit:2;enable-background:accumulate;stop-color:#000000;stop-opacity:1"
       id="path17" />
    <path
       d="m 98.05884,145.94387 a 1.190625,1.190625 0 0 0 -1.189454,1.1914 1.190625,1.190625 0 0 0 1.189454,1.18946 1.190625,1.190625 0 0 0 1.191406,-1.18946 1.190625,1.190625 0 0 0 -1.191406,-1.1914 z"
       style="fill:currentColor;stroke-width:1.5875;stroke-linecap:round;stroke-linejoin:round;stroke-miterlimit:2"
       id="path16" />
    <path
       d="m 100.969,143.56301 a 1.190625,1.190625 0 0 0 -1.189457,1.1914 1.190625,1.190625 0 0 0 1.189457,1.18946 1.190625,1.190625 0 0 0 1.1914,-1.18946 1.190625,1.190625 0 0 0 -1.1914,-1.1914 z"
       style="fill:currentColor;stroke-width:1.5875;stroke-linecap:round;stroke-linejoin:round;stroke-miterlimit:2"
       id="path15" />
    <path
       d="m 89.062746,128.08644 c -0.865742,0 -1.585937,0.7202 -1.585938,1.58594 v 8.4668 c 0,0.86575 0.720184,1.58789 1.585938,1.58789 H 100.969 c 0.86575,0 1.58789,-0.72213 1.58789,-1.58789 v -8.4668 c 0,-0.86575 -0.72215,-1.58594 -1.58789,-1.58594 z m 0,1.58594 H 100.969 v 8.4668 H 89.062746 Z"
       style="baseline-shift:baseline;display:inline;overflow:visible;opacity:1;vector-effect:none;fill:currentColor;stroke-linecap:round;stroke-linejoin:round;stroke-miterlimit:2;enable-background:accumulate;stop-color:#000000;stop-opacity:1"
       id="path14" />
  </g>
</svg>
